<?xml version="1.0" encoding="UTF-8"?><svg id="Vrstva_2" xmlns="http://www.w3.org/2000/svg" viewBox="0 0 1857.55 384.8"><defs><style>.cls-1{fill:#2e3192;}.cls-2{fill:#f7931e;}</style></defs><g id="Vrstva_2-2"><g><path class="cls-2" d="M1437.2,384.8H613.6c-8,0-14.4-6.5-14.4-14.6s6.4-14.6,14.4-14.6h823.6c75.2,0,148.7-34.9,201.7-95.8l3.1-3.5c5.2-6,14.3-6.6,20.3-1.3,6,5.3,6.5,14.5,1.3,20.6l-3.1,3.5c-29.2,33.6-63.6,59.9-102.1,78.1-38.5,18.4-79.3,27.6-121.2,27.6h0Z"/><path class="cls-1" d="M58.4,298.6c-18.1-10.8-32.4-25.7-42.8-44.5S0,214.5,0,191.8s5.2-43.1,15.6-61.8c10.4-18.7,24.7-33.6,42.8-44.5,18.1-10.9,38.1-16.4,60-16.4,15.5,0,29,2.1,40.4,6.1,11.3,4.1,22.9,10.8,34.5,20.2,2.4,1.8,4.1,3.7,4.9,5.7,.8,1.9,1.2,4.2,1.2,6.9,0,4.1-1.5,7.5-4.4,10.1-3,2.7-6.4,4-10.3,4s-7.5-1.3-10.7-4c-8.4-7.2-16.6-12.3-24.5-15.5-8-3.2-18.3-4.8-31-4.8-16,0-30.6,4.2-44,12.6s-24,19.8-31.9,34.2-11.8,30.1-11.8,47.1,3.9,32.9,11.8,47.2c7.9,14.3,18.5,25.7,31.9,34.1s28.1,12.6,44,12.6c19.6,0,38.4-6.8,56.5-20.2,3.5-2.5,6.8-3.7,10.1-3.7,3.9,0,7.1,1.4,9.7,4.1,2.6,2.8,3.8,6.4,3.8,10.9s-1.6,8.1-4.9,11.4c-22.1,17.8-47.2,26.7-75.2,26.7-21.9,.1-41.9-5.3-60.1-16.2h0ZM110.2,45.8l-34.4-22.7c-4.9-3.7-7.4-8.1-7.4-13.2,0-2.7,1.1-4.9,3.2-6.8s5-2.8,8.4-2.8c4.5,0,9.1,1.6,13.8,4.9l24.2,16.3,24.2-16.3c5.1-3.5,9.9-5.2,14.4-5.2,3.5,0,6.2,1,8.1,2.9,1.9,2,2.9,4.2,2.9,6.9,0,5.1-2.4,9.5-7.4,13.2l-34.1,22.7c-2.5,1.6-5.2,2.5-8.3,2.5s-5.4-.7-7.6-2.4Z"/><path class="cls-1" d="M353,154c12.8,7.5,22.9,17.7,30.4,30.7s11.2,27.5,11.2,43.4v68.4c0,4.5-1.5,8.2-4.5,11.2s-6.7,4.5-11.2,4.5-8.2-1.5-11.2-4.5-4.4-6.7-4.4-11.2v-11.4c-7.2,8.8-15.9,15.6-26.1,20.6-10.2,5-21.3,7.4-33.1,7.4-14.7,0-28.1-3.7-40-11-12-7.4-21.4-17.5-28.2-30.5-6.9-13-10.3-27.5-10.3-43.4s3.7-30.4,11.1-43.4c7.4-13,17.5-23.2,30.5-30.7s27.4-11.2,43.1-11.2,29.9,3.6,42.7,11.1h0Zm-15,123.9c8.3-5,14.8-11.9,19.5-20.6s7.1-18.5,7.1-29.3-2.3-20.7-7.1-29.5c-4.7-8.8-11.2-15.7-19.5-20.7s-17.5-7.5-27.8-7.5-19.5,2.5-27.8,7.5-14.8,11.9-19.6,20.7c-4.8,8.8-7.2,18.6-7.2,29.5s2.4,20.6,7.2,29.3c4.8,8.7,11.3,15.5,19.6,20.6,8.3,5,17.5,7.5,27.8,7.5s19.5-2.4,27.8-7.5h0Z"/><path class="cls-1" d="M463,306.6c-12.3-4.3-21.9-9.9-28.8-16.9-2.7-2.7-4-5.8-4-9.5,0-4.9,2-8.9,6.1-12,3.9-2.9,7.5-4.3,10.7-4.3,4.1,0,8,1.8,11.7,5.5,3.9,4.3,9.7,8,17.5,11.2s16.1,4.8,24.9,4.8c11.7,0,20.7-1.9,27.1-5.8,6.4-3.9,9.7-9.1,9.7-15.6s-3.2-11.6-9.5-15.8c-6.3-4.2-17.1-7.7-32.2-10.6-39.3-7.6-58.9-23.7-58.9-48.5,0-10,3-18.5,8.9-25.5,5.9-6.9,13.7-12.2,23.3-15.6,9.6-3.5,19.8-5.2,30.7-5.2,13.3,0,25.2,2.1,35.8,6.4,10.5,4.3,18.9,10.2,25,17.8,2.7,3.3,4,6.6,4,9.8,0,3.5-1.7,6.6-5.2,9.5-2.2,1.6-5.1,2.4-8.6,2.4-5.3,0-10.1-1.9-14.4-5.8-5.1-4.7-10.5-8-16.3-10-5.7-1.9-12.7-2.9-20.9-2.9-9.4,0-17.1,1.6-23.2,4.8-6,3.2-9,7.6-9,13.4,0,4.1,1,7.5,3.1,10.3,2,2.8,5.9,5.3,11.7,7.7,5.7,2.4,14,4.6,24.8,6.9,22.3,4.5,38.1,10.7,47.4,18.7s14,18.3,14,31c0,9.4-2.6,18-7.7,25.6-5.1,7.7-12.6,13.7-22.6,18.1-9.9,4.4-21.8,6.6-35.8,6.6s-27-2.2-39.3-6.5h0Z"/><path class="cls-2" d="M640.1,302.2c-12.9-7.3-22.9-17.3-30.1-30.2s-10.7-27.5-10.7-43.9,3.6-31.3,10.7-44.2c7.2-12.9,17.2-23,30.1-30.2,12.9-7.3,27.5-10.9,43.9-10.9s30.6,3.6,43.4,10.9c12.8,7.3,22.8,17.3,30.1,30.2,7.3,12.9,10.9,27.6,10.9,44.2s-3.6,31-10.7,43.9c-7.2,12.9-17.1,23-29.9,30.2-12.8,7.2-27.4,10.9-43.7,10.9s-31.2-3.7-44-10.9h0Zm71.9-24.1c8.3-4.9,14.7-11.7,19.3-20.4s6.9-18.6,6.9-29.6-2.3-21-6.9-29.8c-4.6-8.8-11.1-15.6-19.3-20.6s-17.6-7.4-28.1-7.4-19.8,2.4-28.1,7.4c-8.3,4.9-14.8,11.8-19.5,20.6-4.7,8.8-7.1,18.7-7.1,29.8s2.3,20.9,7.1,29.6c4.7,8.7,11.2,15.5,19.5,20.4s17.6,7.4,28.1,7.4c10.5-.1,19.8-2.5,28.1-7.4Z"/><path class="cls-1" d="M1034.5,160c10.9,11.7,16.4,27.9,16.4,48.8v87.8c0,4.5-1.4,8.2-4.3,11.2-2.9,3-6.7,4.5-11.3,4.5s-8.2-1.5-11.2-4.5-4.4-6.7-4.4-11.2v-87.8c0-12.5-3.1-21.9-9.4-28.4-6.3-6.5-14.6-9.7-25-9.7s-19.4,3.7-26.2,11.1c-6.9,7.4-10.3,16.8-10.3,28.2v86.5c0,4.5-1.4,8.2-4.3,11.2-2.9,3-6.7,4.5-11.3,4.5s-8.2-1.5-11.2-4.5-4.5-6.7-4.5-11.2v-87.8c0-12.5-3.1-21.9-9.4-28.4s-14.6-9.7-25-9.7-19.7,3.7-26.5,11.1c-6.9,7.4-10.3,16.8-10.3,28.2v86.5c0,4.5-1.4,8.2-4.3,11.2s-6.7,4.5-11.3,4.5-8.2-1.5-11.2-4.5-4.5-6.7-4.5-11.2V160c0-4.7,1.5-8.5,4.5-11.4s6.7-4.3,11.2-4.3,8.2,1.4,11.1,4.1c2.9,2.8,4.4,6.4,4.6,10.9,5.3-5.3,11.7-9.5,19-12.4,7.4-3,15.3-4.4,23.9-4.4,10.4,0,19.8,2.1,28.1,6.3,8.3,4.2,15.1,10.2,20.4,17.9,6.1-7.6,13.8-13.5,23-17.8s19.4-6.4,30.7-6.4c17.6,0,32,5.8,43,17.5h0Z"/><path class="cls-1" d="M1110.3,307.4c-3-3-4.4-6.7-4.4-11.2V159.7c0-4.7,1.5-8.5,4.4-11.4,3-2.9,6.7-4.3,11.2-4.3s8.5,1.4,11.3,4.3c2.9,2.9,4.3,6.6,4.3,11.4v136.5c0,4.5-1.4,8.2-4.3,11.2-2.9,3-6.7,4.5-11.3,4.5s-8.3-1.5-11.2-4.5Zm1-194.2c-2.9-3-4.3-6.7-4.3-11.2s1.2-7.8,3.7-10.4l30.1-30.1c3.1-3.1,6.8-4.6,11.1-4.6s8.2,1.5,11.2,4.6,4.4,6.9,4.4,11.3-1.4,8.1-4.3,10.7l-29.8,29.8c-2.9,2.9-6.4,4.3-10.7,4.3-4.7,0-8.5-1.5-11.4-4.4h0Z"/><path class="cls-1" d="M1303.1,147.1c6.1,3.3,9.2,7.4,9.2,12.3,0,1.4-.1,2.4-.3,3.1-1.8,6.6-5.9,9.8-12.3,9.8-1,0-2.6-.2-4.6-.6-8.2-1.4-14.8-2.1-19.9-2.1-14.7,0-26.6,3.4-35.6,10.1s-13.5,15.9-13.5,27.3v89.6c0,4.9-1.3,8.7-3.8,11.4-2.6,2.7-6.4,4-11.5,4s-8.7-1.3-11.3-3.8c-2.7-2.6-4-6.4-4-11.5V159.3c0-4.9,1.3-8.7,4-11.4,2.7-2.7,6.4-4,11.3-4,10.2,0,15.3,5.1,15.3,15.3v5.8c6.1-7.2,13.7-12.8,22.7-16.9s18.6-6.1,28.8-6.1c10.9,.2,19.4,1.8,25.5,5.1h0Z"/><path class="cls-1" d="M1451.2,154c12.8,7.5,22.9,17.7,30.4,30.7s11.2,27.5,11.2,43.4v68.4c0,4.5-1.5,8.2-4.4,11.2-3,3-6.7,4.5-11.2,4.5s-8.2-1.5-11.2-4.5-4.4-6.7-4.4-11.2v-11.4c-7.2,8.8-15.9,15.6-26.1,20.6-10.2,4.9-21.3,7.4-33.1,7.4-14.7,0-28.1-3.7-40-11-12-7.4-21.4-17.5-28.2-30.5-6.9-13-10.3-27.5-10.3-43.4s3.7-30.4,11-43.4c7.4-13,17.5-23.2,30.5-30.7s27.4-11.2,43.1-11.2,29.9,3.6,42.7,11.1h0Zm-15.1,123.9c8.3-5,14.8-11.9,19.5-20.6s7.1-18.5,7.1-29.3-2.3-20.7-7.1-29.5c-4.7-8.8-11.2-15.7-19.5-20.7s-17.5-7.5-27.8-7.5-19.5,2.5-27.8,7.5-14.8,11.9-19.6,20.7c-4.8,8.8-7.2,18.6-7.2,29.5s2.4,20.6,7.2,29.3c4.8,8.7,11.3,15.5,19.6,20.6,8.3,5,17.5,7.5,27.8,7.5s19.5-2.4,27.8-7.5h0Z"/><path class="cls-2" d="M683.8,237.7c-2.8,0-5.5-1.1-7.6-3.1-4.2-4.2-4.2-11,0-15.2l27.2-27.2c4.2-4.2,11-4.2,15.2,0s4.2,11,0,15.2l-27.2,27.2c-2.1,2.1-4.9,3.1-7.6,3.1h0Z"/><path class="cls-2" d="M738.2,183.4c-2.8,0-5.5-1.1-7.6-3.1-4.2-4.2-4.2-11,0-15.2l15.1-15.1c4.2-4.2,11-4.2,15.2,0s4.2,11,0,15.2l-15.1,15.1c-2.1,2-4.9,3.1-7.6,3.1h0Z"/><path class="cls-2" d="M683.8,162.6c-5.9,0-10.7-4.8-10.7-10.7v-25.6c0-5.9,4.8-10.7,10.7-10.7s10.7,4.8,10.7,10.7v25.6c0,5.9-4.8,10.7-10.7,10.7Z"/><path class="cls-2" d="M705.5,128.4h-43.4c-5.9,0-10.7-4.8-10.7-10.7s4.8-10.7,10.7-10.7h43.4c5.9,0,10.7,4.8,10.7,10.7s-4.8,10.7-10.7,10.7Z"/><g id="Vrstva_11"><g><path class="cls-1" d="M1795.2,136.5l61.7,109.5c1.1,2,.8,4.4-.8,6.1l-10.8,11.1c-2.1,2.1-5.5,2-7.5-.2l-76.3-91.9"/><path class="cls-1" d="M1761.3,104.7l-120.6-44.5c-2.1-.8-4.5-.1-5.8,1.7l-9.3,12.2c-1.8,2.4-1.2,5.8,1.3,7.4l98.3,64.3"/><path class="cls-1" d="M1720.1,226.6c-.2-1.5,.2-2.9,1.2-4.1l94.8-110.3c6.6-7.7,11.8-16.4,15.2-25l8.1-21c5.1-12.9-6.2-22.6-18.2-15.6l-19.5,11.2c-8.2,4.7-15.9,11.2-22.4,18.8l-94.7,110.2c-1,1.1-2.4,1.8-3.8,1.8-22.4,.1-44.6,.1-67,.3-1.6,0-3.1,.8-4.1,2.1l-5.6,7.6c-1.9,2.7-.9,6.5,2.2,7.7,22.5,9.2,45,18.3,67.6,27.5,1,.4,1.9,1.2,2.4,2.1,12.5,20.9,24.9,41.8,37.3,62.7,1.7,2.8,5.6,3.3,7.9,1l6.7-6.6c1.2-1.1,1.7-2.8,1.5-4.4-3.2-22-6.4-44-9.6-66h0Z"/></g></g></g></g></svg>